<?xml version="1.0" encoding="utf-8"?>
<!-- Generator: Adobe Illustrator 19.0.0, SVG Export Plug-In . SVG Version: 6.00 Build 0)  -->
<svg version="1.1" id="Layer_1" xmlns="http://www.w3.org/2000/svg" xmlns:xlink="http://www.w3.org/1999/xlink" x="0px" y="0px"
	 viewBox="0 0 209 209" style="enable-background:new 0 0 209 209;" xml:space="preserve">
<style type="text/css">
	.st0{fill:none;stroke:#51B848;stroke-width:6;stroke-miterlimit:10;}
	.st1{fill:none;stroke:#51B848;stroke-width:7;stroke-miterlimit:10;}
</style>
<g id="XMLID_1_">
	<path id="XMLID_4_" class="st0" d="M104.7,90.9"/>
	<polyline id="XMLID_34_" class="st0" points="149.3,45.5 141.3,53.4 119.7,53.4 105.1,68 105.1,91 105.1,106.2 105.1,165.3 	"/>
	<polyline id="XMLID_8_" class="st0" points="105.3,92.8 127,71.1 154.2,71.1 162.1,63.2 	"/>
	<line id="XMLID_9_" class="st0" x1="136.3" y1="71.4" x2="146.9" y2="60.8"/>
	<polyline id="XMLID_15_" class="st0" points="105.9,97.5 79,70.7 60.3,70.7 52.5,62.8 	"/>
	<polyline id="XMLID_24_" class="st0" points="104.4,73.8 87.2,56.6 77.2,56.6 71.7,51.2 	"/>
	<circle id="XMLID_12_" class="st0" cx="105.1" cy="172" r="6.2"/>
	<circle id="XMLID_25_" class="st0" cx="146" cy="115.6" r="4.6"/>
	<circle id="XMLID_33_" class="st0" cx="68.4" cy="112.3" r="4.6"/>
	<circle id="XMLID_26_" class="st0" cx="167.8" cy="75.5" r="4.6"/>
	<circle id="XMLID_27_" class="st0" cx="164.7" cy="60.5" r="4.6"/>
	<circle id="XMLID_28_" class="st0" cx="152.3" cy="41.9" r="4.6"/>
	<circle id="XMLID_29_" class="st0" cx="105" cy="35.5" r="4.6"/>
	<circle id="XMLID_30_" class="st0" cx="68.5" cy="47.6" r="4.6"/>
	<circle id="XMLID_31_" class="st0" cx="49.1" cy="59.6" r="4.6"/>
	<circle id="XMLID_32_" class="st0" cx="41.2" cy="75.5" r="4.6"/>
	<g id="XMLID_23_">
		<line id="XMLID_7_" class="st0" x1="132" y1="90.8" x2="142" y2="80.8"/>
		<line id="XMLID_3_" class="st0" x1="139.5" y1="90" x2="148.4" y2="99"/>
		<polyline id="XMLID_5_" class="st0" points="114.7,128.9 128.1,115.6 141.1,115.6 		"/>
		<g id="XMLID_6_">
			<polyline id="XMLID_18_" class="st0" points="164.8,78.5 153.2,90.1 125,90.1 115.6,99.4 115.6,139.5 128.1,152.1 141.4,152.1 
				146.6,157.2 			"/>
			<circle id="XMLID_19_" class="st0" cx="150.5" cy="160.3" r="6.2"/>
		</g>
	</g>
	<g id="XMLID_14_">
		<line id="XMLID_10_" class="st0" x1="78.5" y1="90.9" x2="68.5" y2="80.9"/>
		<line id="XMLID_11_" class="st0" x1="72.5" y1="89.6" x2="63.5" y2="98.6"/>
		<line id="XMLID_13_" class="st0" x1="94.2" y1="112.5" x2="72.7" y2="112.5"/>
		<g id="XMLID_20_">
			<polyline id="XMLID_22_" class="st0" points="44.2,78.5 55.8,90.1 84.1,90.1 93.4,99.4 93.4,139.5 80.9,152.1 67.7,152.1 
				62.5,157.2 			"/>
			<circle id="XMLID_21_" class="st0" cx="58.5" cy="160.3" r="6.2"/>
		</g>
	</g>
	<path id="XMLID_2_" class="st0" d="M105.1,66.8"/>
	<line id="XMLID_17_" class="st0" x1="105.1" y1="66.8" x2="105.1" y2="40.9"/>
	<path id="XMLID_16_" class="st0" d="M105.1,49.9"/>
</g>
<circle id="XMLID_115_" class="st1" cx="104.5" cy="104.5" r="99.6"/>
<g id="XMLID_36_">
</g>
<g id="XMLID_37_">
</g>
<g id="XMLID_38_">
</g>
<g id="XMLID_39_">
</g>
<g id="XMLID_40_">
</g>
<g id="XMLID_41_">
</g>
</svg>
