<?xml version="1.0" encoding="utf-8"?>
<!-- Generator: Adobe Illustrator 19.0.0, SVG Export Plug-In . SVG Version: 6.00 Build 0)  -->
<svg version="1.1" id="Layer_1" xmlns="http://www.w3.org/2000/svg" xmlns:xlink="http://www.w3.org/1999/xlink" x="0px" y="0px"
	 viewBox="0 0 209 209" style="enable-background:new 0 0 209 209;" xml:space="preserve">
<style type="text/css">
	.st0{fill:none;}
	.st1{fill:#51B848;}
	.st2{fill:none;stroke:#51B848;stroke-width:4;stroke-miterlimit:10;}
	.st3{fill:none;stroke:#51B848;stroke-width:5;stroke-miterlimit:10;}
</style>
<g id="XMLID_114_">
	
		<ellipse id="XMLID_76_" transform="matrix(0.9269 0.3752 -0.3752 0.9269 46.8536 -31.5813)" class="st0" cx="104.5" cy="104.5" rx="93.8" ry="91.8"/>
	<path id="XMLID_37_" class="st1" d="M22.4,142.1l1.9,4c0.1,0.3,0.2,0.6,0.1,1c-0.1,0.3-0.3,0.6-0.6,0.7s-0.6,0.2-0.9,0
		c-0.3-0.1-0.6-0.3-0.7-0.6l-2-4.2c-0.3-0.5-0.3-1.2-0.3-1.9c0.1-0.7,0.3-1.3,0.6-1.7l3.7-4.9c0.6-0.7,1.2-1.2,2-1.6
		c0.8-0.4,1.6-0.6,2.4-0.5l6.1,0.3c0.6,0,1.2,0.2,1.8,0.6c0.6,0.4,1,0.8,1.2,1.3l2.1,4.4c0.1,0.3,0.2,0.6,0,0.9
		c-0.1,0.3-0.3,0.6-0.6,0.7c-0.3,0.1-0.6,0.2-1,0.1c-0.3-0.1-0.6-0.3-0.7-0.6l-2-4.2c-0.2-0.4-0.5-0.5-1-0.6l-5.8-0.3
		c-0.5,0-0.9,0.1-1.4,0.3c-0.5,0.2-0.9,0.6-1.2,1l-3.4,4.5C22.3,141.1,22.2,141.6,22.4,142.1z"/>
	<path id="XMLID_39_" class="st1" d="M28.2,154.8l14.3-11.3l5.4,6.8c0.6,0.8,0.9,1.7,0.7,2.7c-0.1,1-0.6,1.9-1.4,2.5l-1.1,0.9
		c-0.8,0.6-1.7,0.9-2.7,0.8s-1.8-0.6-2.5-1.4l-1-1.2l-3.7,9.3c-0.1,0.3-0.3,0.5-0.5,0.7c-0.3,0.2-0.6,0.3-0.9,0.2
		c-0.3-0.1-0.6-0.2-0.8-0.5c-0.3-0.4-0.4-0.8-0.2-1.3l4.3-10.7l-1.1-1.4l-7.4,5.8c-0.3,0.2-0.6,0.3-0.9,0.2s-0.6-0.2-0.8-0.5
		c-0.2-0.3-0.3-0.6-0.3-0.9C27.8,155.3,27.9,155,28.2,154.8z M39,149.4l3.9,4.9c0.2,0.3,0.5,0.4,0.8,0.5c0.3,0,0.6,0,0.9-0.3
		l1.1-0.9c0.3-0.2,0.4-0.5,0.5-0.8c0-0.3,0-0.6-0.3-0.9l-3.9-4.9L39,149.4z"/>
	<path id="XMLID_42_" class="st1" d="M52.6,168.8l-5.1,6.3c-0.2,0.3-0.5,0.4-0.8,0.4c-0.3,0-0.6-0.1-0.9-0.3
		c-0.3-0.2-0.4-0.5-0.5-0.8c0-0.3,0-0.6,0.3-0.9l5.1-6.3l0.1-8l1.6-2c0.2-0.3,0.5-0.4,0.8-0.5c0.3,0,0.6,0,0.9,0.3
		c0.3,0.2,0.4,0.5,0.5,0.9c0,0.4-0.1,0.7-0.3,0.9l-1.1,1.3l-0.1,6l5.9-1.3l1.1-1.3c0.2-0.3,0.5-0.4,0.8-0.5c0.3,0,0.6,0,0.9,0.3
		c0.3,0.2,0.4,0.5,0.4,0.8c0,0.3,0,0.7-0.3,0.9l-1.6,2L52.6,168.8z"/>
	<path id="XMLID_44_" class="st1" d="M58.3,182.7l8.1-16.3l7.8,3.9c0.9,0.4,1.5,1.2,1.8,2.1c0.3,1,0.3,1.9-0.2,2.8l-2.1,4.1
		c-0.5,0.9-1.2,1.5-2.1,1.8c-1,0.3-1.9,0.3-2.8-0.2l-5.6-2.8l-2.8,5.6c-0.2,0.3-0.4,0.5-0.7,0.6c-0.3,0.1-0.6,0.1-0.9-0.1
		c-0.3-0.2-0.5-0.4-0.6-0.7C58.1,183.3,58.2,183,58.3,182.7z M64.4,176l5.6,2.8c0.3,0.1,0.6,0.2,0.9,0.1c0.3-0.1,0.6-0.3,0.7-0.6
		l2.1-4.1c0.2-0.3,0.2-0.6,0.1-0.9c-0.1-0.3-0.3-0.6-0.6-0.7l-5.6-2.8L64.4,176z"/>
	<path id="XMLID_47_" class="st1" d="M80.8,176.6l0.8-3.2l12,3l-0.8,3.3c-0.1,0.3-0.3,0.6-0.6,0.8c-0.3,0.2-0.6,0.2-0.9,0.1
		c-0.3-0.1-0.6-0.3-0.8-0.6s-0.2-0.6-0.2-0.9l0.2-0.9l-2.4-0.6l-3.9,15.3c-0.1,0.3-0.3,0.6-0.6,0.8c-0.3,0.2-0.6,0.2-0.9,0.1
		c-0.3-0.1-0.6-0.3-0.8-0.6c-0.2-0.3-0.2-0.6-0.1-0.9l3.9-15.3l-2.4-0.6l-0.2,0.8c-0.1,0.3-0.3,0.6-0.6,0.8
		c-0.3,0.2-0.6,0.2-0.9,0.1c-0.3-0.1-0.6-0.3-0.8-0.6C80.7,177.3,80.7,177,80.8,176.6z"/>
	<path id="XMLID_62_" class="st1" d="M107,179l2.6,5.6c0.4,0.8,0.5,1.6,0.5,2.5c0,0.9-0.2,1.7-0.6,2.4l-2.9,5.4
		c-0.6,1.2-1.6,1.8-3,1.7c-0.7,0-1.2-0.2-1.8-0.6s-0.9-0.8-1.1-1.3l-2.6-5.5c-0.3-0.7-0.5-1.5-0.5-2.4c0-0.9,0.2-1.7,0.6-2.4
		l2.9-5.4c0.6-1.2,1.6-1.8,3-1.7C105.4,177.2,106.4,177.8,107,179z M103.2,180.1l-2.7,5.1c-0.2,0.5-0.4,1-0.4,1.5
		c0,0.5,0.1,1.1,0.3,1.5l2.5,5.3c0.1,0.3,0.4,0.5,0.7,0.5c0.3,0,0.6-0.1,0.7-0.5l2.8-5.2c0.3-0.5,0.4-1,0.4-1.5c0-0.5-0.1-1-0.3-1.5
		l-2.4-5.3c-0.2-0.4-0.4-0.6-0.8-0.6C103.7,179.6,103.4,179.8,103.2,180.1z"/>
	<path id="XMLID_65_" class="st1" d="M115.2,180.2l-0.6-3.3l12.2-2.4l0.7,3.3c0.1,0.3,0,0.6-0.2,0.9c-0.2,0.3-0.5,0.5-0.8,0.5
		c-0.3,0.1-0.6,0-0.9-0.2c-0.3-0.2-0.5-0.5-0.5-0.8l-0.2-0.9l-2.4,0.5l3.1,15.4c0.1,0.3,0,0.6-0.2,0.9c-0.2,0.3-0.5,0.5-0.8,0.5
		c-0.3,0.1-0.7,0-0.9-0.2c-0.3-0.2-0.5-0.4-0.5-0.8l-3.1-15.4l-2.4,0.5l0.2,0.8c0.1,0.3,0,0.6-0.2,0.9s-0.4,0.5-0.8,0.5
		c-0.3,0.1-0.6,0-0.9-0.2C115.4,180.8,115.2,180.5,115.2,180.2z"/>
	<path id="XMLID_67_" class="st1" d="M138.2,189.8l-7.4-16.7l7.9-3.5c0.9-0.4,1.9-0.4,2.8-0.1c1,0.4,1.7,1,2.1,2l0.6,1.3
		c0.4,0.9,0.4,1.9,0.1,2.8c-0.4,1-1,1.6-1.9,2.1l-1.4,0.6l8.1,5.8c0.2,0.2,0.4,0.4,0.5,0.6c0.1,0.3,0.1,0.6,0,0.9
		c-0.1,0.3-0.4,0.6-0.6,0.7c-0.4,0.2-0.9,0.2-1.3-0.1l-9.3-6.8l-1.6,0.7l3.8,8.6c0.1,0.3,0.1,0.6,0,0.9s-0.4,0.5-0.7,0.7
		c-0.3,0.1-0.6,0.1-0.9,0S138.4,190.1,138.2,189.8z M135.6,178l5.7-2.5c0.3-0.1,0.5-0.4,0.7-0.7c0.1-0.3,0.1-0.6,0-0.9l-0.6-1.3
		c-0.1-0.3-0.4-0.5-0.7-0.6c-0.3-0.1-0.6-0.1-0.9,0l-5.7,2.5L135.6,178z"/>
	<path id="XMLID_70_" class="st1" d="M156.1,161.2l-6.9,5.2l3.6,4.8l3-2.3c0.3-0.2,0.6-0.3,0.9-0.2s0.6,0.2,0.8,0.5
		c0.2,0.3,0.3,0.6,0.3,0.9c0,0.3-0.2,0.6-0.5,0.8l-3,2.3l3.6,4.8l7-5.3c0.3-0.2,0.6-0.3,0.9-0.2c0.3,0,0.6,0.2,0.8,0.5
		c0.2,0.3,0.3,0.6,0.2,0.9c-0.1,0.3-0.2,0.6-0.5,0.8l-8.9,6.7l-11.7-15.5l8.9-6.7c0.3-0.2,0.6-0.3,0.9-0.2c0.3,0,0.6,0.2,0.8,0.5
		c0.2,0.3,0.3,0.6,0.2,0.9C156.6,160.7,156.4,161,156.1,161.2z"/>
	<path id="XMLID_72_" class="st1" d="M167.7,148.5l-5.5,6.7l4.6,3.8l2.4-2.9c0.2-0.3,0.5-0.4,0.8-0.4c0.3,0,0.6,0.1,0.9,0.3
		c0.3,0.2,0.4,0.5,0.5,0.8c0,0.3-0.1,0.6-0.3,0.9l-2.4,2.9l4.7,3.8l5.6-6.7c0.2-0.3,0.5-0.4,0.8-0.4c0.3,0,0.6,0.1,0.9,0.3
		c0.3,0.2,0.4,0.5,0.4,0.8c0,0.3-0.1,0.6-0.3,0.9l-7.1,8.6l-15-12.4l7.1-8.6c0.2-0.3,0.5-0.4,0.9-0.4s0.7,0.1,0.9,0.3
		c0.3,0.2,0.4,0.5,0.4,0.8C168,147.9,167.9,148.3,167.7,148.5z"/>
	<path id="XMLID_74_" class="st1" d="M170,139.9l2.8-5.8c0.3-0.7,1-1.2,1.9-1.6c0.9-0.3,1.8-0.3,2.6,0.1c0.3,0.2,0.5,0.4,0.6,0.7
		c0.1,0.3,0.1,0.6,0,0.9c-0.2,0.4-0.4,0.6-0.6,0.7s-0.6,0-1.2-0.1s-0.9,0.1-1.1,0.5l-2.7,5.5c-0.1,0.3-0.1,0.4,0.1,0.5
		c0.1,0.1,0.3,0.1,0.5,0l14.5-3.1c0.7-0.1,1.3-0.1,1.9,0.2c0.7,0.3,1.1,0.8,1.4,1.6c0.3,0.7,0.3,1.4,0,2l-2.9,6
		c-0.4,0.8-1,1.3-1.9,1.6c-0.9,0.3-1.7,0.3-2.4-0.1c-0.8-0.4-1-1-0.7-1.8c0.1-0.3,0.4-0.5,0.7-0.6c0.3-0.1,0.6-0.1,0.9,0.1
		c0.2,0.1,0.5,0.1,0.7,0c0.2-0.1,0.4-0.3,0.5-0.5l2.7-5.5c0.1-0.2,0.1-0.4-0.1-0.5c-0.1-0.1-0.2-0.1-0.4,0l-14.5,3.1
		c-0.7,0.1-1.3,0.1-1.9-0.2c-0.7-0.3-1.2-0.9-1.4-1.6C169.6,141.3,169.6,140.6,170,139.9z"/>
</g>
<g id="XMLID_11_">
	<path id="XMLID_4_" class="st2" d="M104.6,79.8"/>
	<polyline id="XMLID_34_" class="st2" points="142.8,41 136,47.8 117.5,47.8 105,60.2 105,80 105,92.9 105,143.5 	"/>
	<polyline id="XMLID_8_" class="st2" points="105.2,81.5 123.8,62.9 147.1,62.9 153.8,56.2 	"/>
	<line id="XMLID_9_" class="st2" x1="131.7" y1="63.2" x2="140.8" y2="54.1"/>
	<polyline id="XMLID_15_" class="st2" points="105.7,85.5 82.7,62.5 66.7,62.5 60,55.8 	"/>
	<polyline id="XMLID_24_" class="st2" points="104.4,65.2 89.7,50.5 81.1,50.5 76.5,45.9 	"/>
	<circle id="XMLID_12_" class="st2" cx="105" cy="149.3" r="5.3"/>
	<circle id="XMLID_25_" class="st2" cx="140" cy="101" r="3.9"/>
	<circle id="XMLID_33_" class="st2" cx="73.6" cy="98.2" r="3.9"/>
	<circle id="XMLID_26_" class="st2" cx="158.7" cy="66.7" r="3.9"/>
	<circle id="XMLID_27_" class="st2" cx="156" cy="53.9" r="3.9"/>
	<circle id="XMLID_28_" class="st2" cx="145.4" cy="38" r="3.9"/>
	<circle id="XMLID_29_" class="st2" cx="105" cy="32.4" r="3.9"/>
	<circle id="XMLID_30_" class="st2" cx="73.7" cy="42.8" r="3.9"/>
	<circle id="XMLID_31_" class="st2" cx="57.1" cy="53.1" r="3.9"/>
	<circle id="XMLID_32_" class="st2" cx="50.3" cy="66.7" r="3.9"/>
	<g id="XMLID_23_">
		<line id="XMLID_7_" class="st2" x1="128" y1="79.8" x2="136.6" y2="71.2"/>
		<line id="XMLID_2_" class="st2" x1="134.4" y1="79.1" x2="142.1" y2="86.8"/>
		<polyline id="XMLID_1_" class="st2" points="113.2,112.4 124.7,101 135.9,101 		"/>
		<g id="XMLID_6_">
			<polyline id="XMLID_18_" class="st2" points="156.1,69.2 146.2,79.2 122,79.2 114,87.2 114,121.5 124.7,132.2 136.1,132.2 
				140.5,136.6 			"/>
			<circle id="XMLID_19_" class="st2" cx="143.9" cy="139.3" r="5.3"/>
		</g>
	</g>
	<g id="XMLID_14_">
		<line id="XMLID_10_" class="st2" x1="82.2" y1="79.9" x2="73.7" y2="71.3"/>
		<line id="XMLID_3_" class="st2" x1="77.1" y1="78.8" x2="69.4" y2="86.5"/>
		<line id="XMLID_13_" class="st2" x1="95.7" y1="98.3" x2="77.3" y2="98.3"/>
		<g id="XMLID_20_">
			<polyline id="XMLID_22_" class="st2" points="52.9,69.2 62.9,79.2 87,79.2 95,87.2 95,121.5 84.3,132.2 73,132.2 68.5,136.6 			
				"/>
			<circle id="XMLID_21_" class="st2" cx="65.2" cy="139.3" r="5.3"/>
		</g>
	</g>
	<path id="XMLID_5_" class="st2" d="M105,59.2"/>
	<line id="XMLID_17_" class="st2" x1="105" y1="59.2" x2="105" y2="37"/>
	<path id="XMLID_16_" class="st2" d="M105,44.8"/>
</g>
<circle id="XMLID_115_" class="st3" cx="104.5" cy="104.5" r="102"/>
<g id="XMLID_36_">
</g>
<g id="XMLID_77_">
</g>
<g id="XMLID_78_">
</g>
<g id="XMLID_79_">
</g>
<g id="XMLID_80_">
</g>
<g id="XMLID_81_">
</g>
</svg>
