<?xml version="1.0" encoding="utf-8"?>
<!-- Generator: Adobe Illustrator 19.0.0, SVG Export Plug-In . SVG Version: 6.00 Build 0)  -->
<svg version="1.1" id="OBJECTS" xmlns="http://www.w3.org/2000/svg" xmlns:xlink="http://www.w3.org/1999/xlink" x="0px" y="0px"
	 viewBox="0 0 107 150" style="enable-background:new 0 0 107 150;" xml:space="preserve">
<style type="text/css">
	.st0{clip-path:url(#XMLID_3_);fill:url(#SVGID_1_);}
	.st1{fill:url(#SVGID_2_);}
</style>
<g>
	<g>
		<defs>
			<path id="XMLID_4_" d="M6,65.8c-18.5,34.4,7.2,62.4,53.5,60c27.6-1.4,48.8-24.9,47.4-52.5C105.5,45.7,79-1.4,51.4,0
				C28.8,1.2,30.4,20.5,6,65.8z"/>
		</defs>
		
			<linearGradient id="XMLID_2_" gradientUnits="userSpaceOnUse" x1="53.4141" y1="126.1346" x2="53.4141" y2="0.1261" gradientTransform="matrix(-0.9987 5.120000e-002 5.120000e-002 0.9987 102.6792 -2.7238)">
			<stop  offset="0" style="stop-color:#49A187"/>
			<stop  offset="0.1157" style="stop-color:#5BAB7E"/>
			<stop  offset="0.3413" style="stop-color:#78BB6F"/>
			<stop  offset="0.5658" style="stop-color:#8CC664"/>
			<stop  offset="0.7868" style="stop-color:#99CD5D"/>
			<stop  offset="1" style="stop-color:#9DCF5B"/>
		</linearGradient>
		<use xlink:href="#XMLID_4_"  style="overflow:visible;fill:url(#XMLID_2_);"/>
		<clipPath id="XMLID_3_">
			<use xlink:href="#XMLID_4_"  style="overflow:visible;"/>
		</clipPath>
		<linearGradient id="SVGID_1_" gradientUnits="userSpaceOnUse" x1="60.921" y1="142.858" x2="60.921" y2="-3.6495">
			<stop  offset="0" style="stop-color:#9EDD99"/>
			<stop  offset="0.1211" style="stop-color:#8BD095"/>
			<stop  offset="0.3453" style="stop-color:#6EBB8F"/>
			<stop  offset="0.5684" style="stop-color:#5AAD8B"/>
			<stop  offset="0.7881" style="stop-color:#4DA488"/>
			<stop  offset="1" style="stop-color:#49A187"/>
		</linearGradient>
		<path class="st0" d="M36.2-3.6c0,0,32-2,26.7,23.3c-4,19.2-24.2,24.7-22,36c4,20.7,38.7-23.3,50-9.3c8.7,10.7,6.1,32.1-8,40.7
			c-22,13.3-26.7,48,16,18.7c19.7-13.5,32.7,18,14,30c-18.7,12-109.3,13.3-112.7-32C-3.2,58.4,36.2-3.6,36.2-3.6z"/>
	</g>
	<linearGradient id="SVGID_2_" gradientUnits="userSpaceOnUse" x1="53.7702" y1="150.0002" x2="53.7702" y2="57.1996">
		<stop  offset="0" style="stop-color:#B07145"/>
		<stop  offset="1" style="stop-color:#80552E"/>
	</linearGradient>
	<path class="st1" d="M11.4,71.5c1.3,0.8,2.1,2.7,2.8,4c1.9,3.1,4,5.9,6.2,8.8c3.1,3.9,6.5,7.4,10.4,10.5c2.4,1.9,5.8,3.3,8.5,5.1
		c-3.4-5.5-5.4-11.5-7.5-17.7c0,0,0,0,0,0c2.9,5.3,4.3,11.1,7.8,16.2c3,4.3,6.9,10.4,12,13c1.1,0.1,2.4,0.1,3.6,0.1
		c-4-3.8-6.8-9.3-8.8-14.5c-1.1-0.4-1.7-1.7-2.3-2.6c-2.6-3.8-4.7-7.8-6.8-11.9c-3.8-7.5-5.6-15.8-5.4-24.2c0,0,0,0,0,0
		c0.2,7.8,2,15.2,5.2,22.3c2.1,4.8,5.4,10.7,8.8,15.1c-0.2-0.5-0.4-1.1-0.6-1.6c-2.8-7.9-3.4-16.6-3.4-24.9c0,0,0,0,0,0
		c1.5,7.6,1.4,15.3,3.9,22.8c2.4,7.1,6.2,13,10.4,19.1c3.1-6.6,3.6-13.4,3.8-20.8c0.3-8-0.3-15.7-2.8-23.4c0,0,0-0.1,0.1,0
		c3.6,6.8,3.9,14.6,3.9,22.2c2-4.8,4.8-9.3,6.9-14.1c2.5-5.9,3.2-11.6,4.8-17.7c0,0,0,0,0,0c-1,5.7-1.3,10.8-3.4,16.3
		c-2.3,5.8-4.9,11.3-8.3,16.5c0,0.7,0,1.3,0,2c-0.1,5.6,0,12.8-2.6,18.2c1.7-0.9,3.5-1.7,5-2.8c3.2-2.3,5.6-5.6,7.7-8.9
		c3.7-5.8,7.1-12.5,8.3-19.3c0,0,0.1,0,0.1,0C79.1,86,76,92.9,72.5,98.8c11.5-4,21-14.4,24-26c0,0,0,0,0,0c0.2,6.3-3.9,11.7-8,16.1
		c-4.3,4.5-10.4,9.6-16.5,11c-0.1,0-0.2,0-0.2,0c-0.4,0.6-0.7,1.2-1.1,1.7c-2.2,3.3-5.3,6.7-8.9,8.9c7.2-1.2,15.9-3.3,20.3-8.9
		c0,0,0.1,0,0.1,0.1c-2.3,3.6-6,5.6-9.9,7.1c-3.3,1.3-6.9,3.2-10.5,3.4c-0.5,0.5-1.3,1.3-2.3,2.3c-1.8,2,4.2,35.5,4.2,35.5
		l-13.3-0.3c0,0,4.2-29,4-32.4c-0.2-3.4-1.6-4-4.6-4.5c-0.6-0.1-1.1-0.3-1.5-0.4c-5-0.6-9.6-2.3-13.9-5.3c-6.1-4.3-12.5-9-15.8-15.9
		c-0.1-0.1,0.1-0.2,0.2-0.1c4.5,5.5,9.4,10.1,15.1,14.3c3.2,2.4,6.7,4.3,10.7,5.2c1.4,0.3,2.7,0.4,4,0.6c-2.5-1.9-4.6-5-6.1-6.8
		c-0.8-0.9-1.5-1.9-2.2-2.9c-6.6-3-12.4-7.7-17.3-12.9c-2.6-2.9-5-6.1-7.3-9.2c-1.5-2.1-2.6-6-4.7-7.5
		C10.9,71.7,11.2,71.3,11.4,71.5z"/>
</g>
</svg>
