<?xml version="1.0" encoding="utf-8"?>
<!-- Generator: Adobe Illustrator 19.0.0, SVG Export Plug-In . SVG Version: 6.00 Build 0)  -->
<svg version="1.1" id="OBJECTS" xmlns="http://www.w3.org/2000/svg" xmlns:xlink="http://www.w3.org/1999/xlink" x="0px" y="0px"
	 viewBox="0 0 41.5 150" style="enable-background:new 0 0 41.5 150;" xml:space="preserve">
<style type="text/css">
	.st0{clip-path:url(#XMLID_3_);fill:url(#SVGID_1_);}
	.st1{fill:url(#SVGID_2_);}
</style>
<g>
	<g>
		<defs>
			<path id="XMLID_8_" d="M39.1,71.9c-10.8-21,3.5-21.7,0-33.5c-3.5-11.8-12.5-10.3-11-20.8C30,4.3,25.6,0,19.6,0S6.5,7,9.6,19.1
				c2,7.8-1.3,9.8-5.8,16.3s-3.3,16,0,20.8c4.2,6.1,3.5,9.9-0.8,16c-4.3,6-5,18.5,3,22.5s0.8,20,5.8,27.5
				c6.8,10.3,16.3,10.3,19.8-8.3c2.3-12.4-1.3-12.8,3.3-19.3S44.7,82.8,39.1,71.9z M7.6,53.6c-4.8-3,3.5-12.3,4.9-12.6
				c0,0,4.2-3.2,7.7-0.2c3.5,3-1.1,7.7-4.6,9.4C12.3,51.9,12.5,56.6,7.6,53.6z M23.6,16.1c-2.3,0-1.5,4.8-4.8,3.8s-0.9-9,1.8-8.8
				C23.6,11.4,25.9,16.1,23.6,16.1z M26.3,78.8c-2-4.4,2.6-9.2,6.8-6.8c1,0.6,1.8,1.5,2.3,2.9c1.8,5.8,5,9,0.8,9.5
				C33.1,84.7,28.3,83.1,26.3,78.8z"/>
		</defs>
		<linearGradient id="XMLID_2_" gradientUnits="userSpaceOnUse" x1="20.7689" y1="161.7753" x2="20.7689" y2="32.7873">
			<stop  offset="0" style="stop-color:#274040"/>
			<stop  offset="0.1788" style="stop-color:#325F57"/>
			<stop  offset="0.3882" style="stop-color:#3C7C6C"/>
			<stop  offset="0.5968" style="stop-color:#43907B"/>
			<stop  offset="0.802" style="stop-color:#489D84"/>
			<stop  offset="1" style="stop-color:#49A187"/>
		</linearGradient>
		<use xlink:href="#XMLID_8_"  style="overflow:visible;fill:url(#XMLID_2_);"/>
		<clipPath id="XMLID_3_">
			<use xlink:href="#XMLID_8_"  style="overflow:visible;"/>
		</clipPath>
		<linearGradient id="SVGID_1_" gradientUnits="userSpaceOnUse" x1="13.8298" y1="131.4541" x2="13.8298" y2="2.6596">
			<stop  offset="0" style="stop-color:#49A187"/>
			<stop  offset="0.198" style="stop-color:#489D84"/>
			<stop  offset="0.4032" style="stop-color:#43907B"/>
			<stop  offset="0.6118" style="stop-color:#3C7C6C"/>
			<stop  offset="0.8212" style="stop-color:#325F57"/>
			<stop  offset="1" style="stop-color:#274040"/>
		</linearGradient>
		<path class="st0" d="M9.4,9.6c0.3-6.5,28.5-18.3,12.5,20c-9,21.5,3.1,20.9,8.8,13.3c9.3-12.5,19.5,0.5,2.8,15.5
			c-14.5,13-21.3,20.7-21.3,27.7s3.9,16.2,11.5,13.5c10-3.5,10.5,38.3-17.5,31c-13.8-3.6-21.5-13.8-20.8-46.3S9.1,16.1,9.4,9.6z"/>
	</g>
	<linearGradient id="SVGID_2_" gradientUnits="userSpaceOnUse" x1="21.7716" y1="149.9691" x2="21.7716" y2="49.9691">
		<stop  offset="0" style="stop-color:#B07145"/>
		<stop  offset="9.569216e-002" style="stop-color:#A2683F"/>
		<stop  offset="0.3254" style="stop-color:#855733"/>
		<stop  offset="0.5543" style="stop-color:#704A2A"/>
		<stop  offset="0.7804" style="stop-color:#644325"/>
		<stop  offset="1" style="stop-color:#604023"/>
	</linearGradient>
	<polygon class="st1" points="22.8,50 24.8,150 18.8,150 20.8,50 	"/>
</g>
</svg>
