<?xml version="1.0" encoding="utf-8"?>
<!-- Generator: Adobe Illustrator 19.0.0, SVG Export Plug-In . SVG Version: 6.00 Build 0)  -->
<svg version="1.1" id="OBJECTS" xmlns="http://www.w3.org/2000/svg" xmlns:xlink="http://www.w3.org/1999/xlink" x="0px" y="0px"
	 viewBox="0 0 76.2 150.6" style="enable-background:new 0 0 76.2 150.6;" xml:space="preserve">
<style type="text/css">
	.st0{clip-path:url(#XMLID_4_);fill:url(#SVGID_1_);}
	.st1{fill:url(#SVGID_2_);}
</style>
<g>
	<g>
		<defs>
			<path id="XMLID_2_" d="M72.9,85.8c-1.1-3-4.8-4.2-7.5-2.4c-2,1.4-4.2,2.6-8.2,1.9c-7.4-1.1-6-9.4-4-11.5c2-2.1,5-3.4,7.9-4.1
				c8.2-2.2,14.4-9.1,15-17.6c0.9-13.9-10.2-24.4-16.3-26.7C47.4,20.6,56.6,2.3,37,0.2C21.6-1.6,11.1,11.6,16.9,23.5
				c4.2,8.7-0.4,14.6-9,21.8C-9,59.4,7.3,79.8,2.2,91c-7.3,15.9,3.5,37.5,36.5,37.3C69.7,128,82.9,112.3,72.9,85.8L72.9,85.8z
				 M30.2,100.3c-4-2-5.3,10-15,6.3c-5.6-2.1-6.6-6.5-6.4-9.8c0.2-3,1.4-5.9,3.6-8c3.3-3.2,6.6-2,13.3-1.4
				C34.2,88,34.2,102.3,30.2,100.3z M34.8,50c-0.7,4.1-6.1,2.4-10.8,7.5s-10.8,0-10.8,0s-4.5-4,3.2-8.7C24.1,43.9,35.5,45.9,34.8,50
				z"/>
		</defs>
		<linearGradient id="XMLID_3_" gradientUnits="userSpaceOnUse" x1="38.1111" y1="128.2964" x2="38.1111" y2="1.718945e-010">
			<stop  offset="0" style="stop-color:#274040"/>
			<stop  offset="0.1788" style="stop-color:#325F57"/>
			<stop  offset="0.3882" style="stop-color:#3C7C6C"/>
			<stop  offset="0.5968" style="stop-color:#43907B"/>
			<stop  offset="0.802" style="stop-color:#489D84"/>
			<stop  offset="1" style="stop-color:#49A187"/>
		</linearGradient>
		<use xlink:href="#XMLID_2_"  style="overflow:visible;fill:url(#XMLID_3_);"/>
		<clipPath id="XMLID_4_">
			<use xlink:href="#XMLID_2_"  style="overflow:visible;"/>
		</clipPath>
		<linearGradient id="SVGID_1_" gradientUnits="userSpaceOnUse" x1="31.9461" y1="142.3223" x2="31.9461" y2="-13.206">
			<stop  offset="0" style="stop-color:#49A187"/>
			<stop  offset="1" style="stop-color:#274040"/>
		</linearGradient>
		<path class="st0" d="M11.4-13.2c0.8,0,36.5,7,31,23.5c-4.9,14.6-19.4,12.6-14.7,22.3c5.7,11.8,29.2-5.7,31.2,15.3
			c1.3,12.8-16,23-35,32c-7.5,3.6-11.3,28.5,26,17.5c22.4-6.6,31.3,25.3,10.8,37.3S2.2,149.8-3.6,105.8s-8-88.3,3.3-96
			S11.4-13.2,11.4-13.2z"/>
	</g>
	<linearGradient id="SVGID_2_" gradientUnits="userSpaceOnUse" x1="36.1194" y1="150.6446" x2="36.1194" y2="30.6446">
		<stop  offset="0" style="stop-color:#B07145"/>
		<stop  offset="8.771682e-002" style="stop-color:#A36940"/>
		<stop  offset="0.3227" style="stop-color:#865733"/>
		<stop  offset="0.5555" style="stop-color:#714A2A"/>
		<stop  offset="0.7833" style="stop-color:#644325"/>
		<stop  offset="1" style="stop-color:#604023"/>
	</linearGradient>
	<polygon class="st1" points="66.1,94.4 40.5,109.2 40.2,93.8 40.4,94.1 50.9,84 65.8,80.5 52.1,82.8 64.5,70.8 40.1,90.6 
		39.8,78.4 40,78.3 39.8,78.1 39.6,67.6 43.1,63.5 43.1,63.5 57.5,64.6 44.6,61.8 56.3,48 39.6,64.9 38.8,30.6 37.9,75.7 21,54.6 
		31.4,69.4 19.1,71.2 32,70.3 37.8,78.7 37.3,103 6.1,76.7 22.5,92.6 9,89.9 23.8,93.8 37.2,106.8 35.8,150.6 41.8,150.6 
		40.6,113.6 	"/>
</g>
</svg>
