<?xml version="1.0" encoding="utf-8"?>
<!-- Generator: Adobe Illustrator 19.0.0, SVG Export Plug-In . SVG Version: 6.00 Build 0)  -->
<svg version="1.1" id="OBJECTS" xmlns="http://www.w3.org/2000/svg" xmlns:xlink="http://www.w3.org/1999/xlink" x="0px" y="0px"
	 viewBox="0 0 80 149.4" style="enable-background:new 0 0 80 149.4;" xml:space="preserve">
<style type="text/css">
	.st0{clip-path:url(#XMLID_4_);fill:url(#SVGID_1_);}
	.st1{fill:url(#SVGID_2_);}
</style>
<g>
	<g>
		<defs>
			<path id="XMLID_3_" d="M3.8,112.8c10.7,17.8,30.3,3.7,56.1,9.5C82,127.3,85.6,95,72,90c-6.8-2.5-8.9-11.6-5.3-21
				c3.6-9.4,2.7-21-4.8-31c-7.5-10-15-6.3-15.6-23C45.6-3.6,31.1-3.1,27.4,6.7c-4.7,12.2-0.9,25.5-10.1,32C7.4,45.7,5,59.4,8,68.3
				C14.8,88.5-8.9,91.6,3.8,112.8z"/>
		</defs>
		<linearGradient id="XMLID_2_" gradientUnits="userSpaceOnUse" x1="40" y1="122.8648" x2="40" y2="1.682565e-010">
			<stop  offset="0" style="stop-color:#49A187"/>
			<stop  offset="0.2119" style="stop-color:#4DA488"/>
			<stop  offset="0.4316" style="stop-color:#5AAD8B"/>
			<stop  offset="0.6547" style="stop-color:#6EBB8F"/>
			<stop  offset="0.8789" style="stop-color:#8BD095"/>
			<stop  offset="1" style="stop-color:#9EDD99"/>
		</linearGradient>
		<use xlink:href="#XMLID_3_"  style="overflow:visible;fill:url(#XMLID_2_);"/>
		<clipPath id="XMLID_4_">
			<use xlink:href="#XMLID_3_"  style="overflow:visible;"/>
		</clipPath>
		<linearGradient id="SVGID_1_" gradientUnits="userSpaceOnUse" x1="21.5145" y1="129.5669" x2="21.5145" y2="0.5498">
			<stop  offset="0" style="stop-color:#9EDD99"/>
			<stop  offset="0.1211" style="stop-color:#8BD095"/>
			<stop  offset="0.3453" style="stop-color:#6EBB8F"/>
			<stop  offset="0.5684" style="stop-color:#5AAD8B"/>
			<stop  offset="0.7881" style="stop-color:#4DA488"/>
			<stop  offset="1" style="stop-color:#49A187"/>
		</linearGradient>
		<path class="st0" d="M17.2,3.6c0,0,15.8-10,16.5,6.2c0.6,12.5-12.5,20.3,0.3,28c8.5,5.1,33.5,21.3,25.8,33S40,74.5,32.5,70.1
			c-10.8-6.3-16.5,9.8-8,15s23.7,4.2,31,9c10.8,7,7,28.5-14.8,28.5c-18.2,0-56.8,15-57.3,1s-6.8-57.3,7.8-66.8S17.2,3.6,17.2,3.6z"
			/>
	</g>
	<linearGradient id="SVGID_2_" gradientUnits="userSpaceOnUse" x1="34.6875" y1="149.4444" x2="34.6875" y2="24.4444">
		<stop  offset="0" style="stop-color:#604023"/>
		<stop  offset="0.3971" style="stop-color:#815431"/>
		<stop  offset="1" style="stop-color:#B07145"/>
	</linearGradient>
	<polygon class="st1" points="51.9,88.9 39.1,100.5 38.9,92 57.9,72.7 48.7,80.8 53.7,67.6 47.1,82.1 38.8,89.4 38.6,82.2 45,74.5 
		38.5,80.9 38.3,73.6 43.7,66.4 53.7,61.6 44.7,65 52.2,54.7 38.3,70.8 37.8,56 46.8,43.3 37.8,53.2 37.6,49.3 37.6,49.3 37.6,49.3 
		37.5,42.5 37.6,42.6 42.9,31 37.4,40.9 36.9,24.4 36.3,47.6 30.6,40.9 36,50.4 36.2,50.3 36,57.6 29.1,52.6 36,58.7 35.7,67.6 
		21.9,55 30.9,65 19.5,63.1 32,66.2 35.6,70.2 35.1,89.7 31.7,86.1 27.3,74.2 30.2,84.6 13.3,66.7 22.6,77.8 11.5,77.2 23.4,78.8 
		23.4,78.8 31.6,88.5 24.6,86.5 32.6,89.7 35,92.5 34.5,109.5 12.4,88.3 28.5,105.7 13.9,101.2 29.8,107.1 34.4,112 32.9,149.4 
		40.9,149.4 39.1,101.8 42.9,98 42.9,98.2 56.7,95.8 43.8,97.1 	"/>
</g>
</svg>
