<?xml version="1.0" encoding="utf-8"?>
<!-- Generator: Adobe Illustrator 19.0.0, SVG Export Plug-In . SVG Version: 6.00 Build 0)  -->
<svg version="1.1" id="OBJECTS" xmlns="http://www.w3.org/2000/svg" xmlns:xlink="http://www.w3.org/1999/xlink" x="0px" y="0px"
	 viewBox="0 0 100 150.6" style="enable-background:new 0 0 100 150.6;" xml:space="preserve">
<style type="text/css">
	.st0{fill:url(#SVGID_1_);}
	.st1{clip-path:url(#XMLID_4_);fill:url(#SVGID_2_);}
	.st2{fill:url(#SVGID_3_);}
</style>
<g>
	<g>
		<linearGradient id="SVGID_1_" gradientUnits="userSpaceOnUse" x1="49.8877" y1="150.6006" x2="49.8877" y2="98.9951">
			<stop  offset="0" style="stop-color:#B07145"/>
			<stop  offset="1" style="stop-color:#80552E"/>
		</linearGradient>
		<polygon class="st0" points="51.9,150.6 49.9,150.6 47.9,150.6 47.9,99 51.9,99 		"/>
	</g>
	<g>
		<defs>
			<circle id="XMLID_1_" cx="50" cy="50" r="50"/>
		</defs>
		<linearGradient id="XMLID_3_" gradientUnits="userSpaceOnUse" x1="50" y1="100" x2="50" y2="0">
			<stop  offset="0" style="stop-color:#49A187"/>
			<stop  offset="0.1157" style="stop-color:#5BAB7E"/>
			<stop  offset="0.3413" style="stop-color:#78BB6F"/>
			<stop  offset="0.5658" style="stop-color:#8CC664"/>
			<stop  offset="0.7868" style="stop-color:#99CD5D"/>
			<stop  offset="1" style="stop-color:#9DCF5B"/>
		</linearGradient>
		<use xlink:href="#XMLID_1_"  style="overflow:visible;fill:url(#XMLID_3_);"/>
		<clipPath id="XMLID_4_">
			<use xlink:href="#XMLID_1_"  style="overflow:visible;"/>
		</clipPath>
		
			<linearGradient id="SVGID_2_" gradientUnits="userSpaceOnUse" x1="-233.0897" y1="125.4511" x2="-233.0897" y2="-2.5477" gradientTransform="matrix(-1 0 0 1 -219.2772 0)">
			<stop  offset="0" style="stop-color:#9DCF5B"/>
			<stop  offset="0.1921" style="stop-color:#94CA60"/>
			<stop  offset="0.5054" style="stop-color:#7CBD6C"/>
			<stop  offset="0.8987" style="stop-color:#54A781"/>
			<stop  offset="1" style="stop-color:#49A187"/>
		</linearGradient>
		<path class="st1" d="M68.5,110.8c0,0,2.3-21.3-18.7-18.3S23.8,78.3,28.1,71.4c4.4-6.9,11.4-18.3,4.7-27.9c-6.7-9.7-9-22,2-27
			s8.7-20-5.3-19s-99.3,81.3-60.3,113.7C8.2,143.5,68.5,110.8,68.5,110.8z"/>
	</g>
	<linearGradient id="SVGID_3_" gradientUnits="userSpaceOnUse" x1="52.0215" y1="100.3343" x2="52.0215" y2="12.7803">
		<stop  offset="0" style="stop-color:#80552E"/>
		<stop  offset="0.29" style="stop-color:#895A32"/>
		<stop  offset="0.7616" style="stop-color:#A1683E"/>
		<stop  offset="1" style="stop-color:#B07145"/>
	</linearGradient>
	<path class="st2" d="M92.3,62.9c-1.3,1.3-2.8,2.3-4.3,3.3c-1.6,0.9-3.2,1.7-4.9,2.2c-0.8,0.3-1.7,0.5-2.6,0.7
		c-0.4,0.1-0.7,0.1-1.1,0.2c3-3.7,5.7-7.7,8.1-11.7c2.5-4.3,4.8-8.7,6.7-13.3c-2,4.5-4.4,8.9-7.1,13.1c-2.7,4.2-5.6,8.2-8.9,11.9
		c-0.1,0.1-0.3,0.3-0.4,0.4c0,0,0,0-0.1,0l0,0c-3.2,3.5-6.7,6.7-10.5,9.3c-2,1.3-4.1,2.6-6.4,3.5c-1.6,0.7-3.2,1.2-4.8,1.7
		c0.7-1.2,1.5-2.3,2.4-3.5c3-4,6.3-7.7,9.7-11.3l0.1,0c0,0,0,0,0-0.1c1.5-1.6,3.1-3.2,4.6-4.8c2.5-2.6,5.2-5.1,7.4-8.1
		c2.2-2.9,4.1-6.1,5.5-9.5c1.4-3.4,2.3-7,2.6-10.6c0.3-3.6,0.1-7.3-0.8-10.8c0.9,3.5,1,7.2,0.6,10.8c-0.4,3.6-1.3,7.1-2.8,10.5
		c-1.4,3.3-3.3,6.4-5.6,9.2c-2.2,2.8-5,5.2-7.5,7.8c-1.2,1.2-2.5,2.4-3.7,3.6c0.4-2.6,0.9-5.2,1.5-7.7c1.5-1,3-2,4.2-3.4
		c1.3-1.3,2.4-2.8,3.3-4.3c0.9-1.6,1.7-3.2,2.3-4.9c0.6-1.7,1.1-3.5,1.3-5.3c-0.3,1.8-0.9,3.5-1.6,5.2c-0.7,1.7-1.5,3.3-2.5,4.7
		c-1,1.5-2.1,2.9-3.4,4.1c-1,1-2.2,1.8-3.4,2.5c0.2-0.6,0.3-1.3,0.5-1.9c1.1-4.3,2.3-8.6,3.6-12.8c2.6-8.5,5.4-16.9,8.5-25.2
		c-3.2,8.3-6.2,16.6-8.9,25.1c-1.4,4.2-2.7,8.5-3.8,12.8c-1.1,4.1-2.1,8.2-2.7,12.4c-3.5,3.6-7,7.2-10.1,11.2
		c-2.2,2.9-4.3,6-5.8,9.4c0,0.1-0.1,0.2-0.1,0.3c0.1-2.4,0.3-4.9,0.4-7.3c1-1.6,1.7-3.2,2.4-4.9l0.2,0.3c1.8-1.1,3.3-2.7,4.4-4.4
		c1.2-1.8,1.9-3.7,2.5-5.7c0.6-2,1-4,1.2-6c0.2-2,0.4-4.1,0.3-6.1c0,2-0.3,4.1-0.6,6.1c-0.3,2-0.8,4-1.5,5.9
		c-0.7,1.9-1.5,3.8-2.6,5.4c-1,1.4-2.2,2.6-3.6,3.5c0,0,0,0,0,0c0.9-2.5,1.6-5.1,2.1-7.7c0.6-2.6,1-5.2,1.4-7.8
		c0.4-2.6,0.7-5.3,0.8-7.9c-0.3,2.6-0.6,5.3-1.1,7.9c-0.4,2.6-1,5.2-1.6,7.8c-0.6,2.6-1.4,5.1-2.3,7.5c-0.6,1.5-1.2,2.9-2,4.2
		c0-0.6,0.1-1.2,0.1-1.9c0.5-7.3,1.1-14.6,2.1-21.8c0.3-1.8,0.5-3.6,0.9-5.4c0.3-1.8,0.8-3.5,1.3-5.3c0.3-1.3,0.6-2.7,0.8-4l0.2,0.4
		c2.4-1.2,4.7-2.8,6.5-4.8c1.8-2,3.1-4.5,3.9-7c0.8-2.6,1.1-5.3,1-7.9c-0.1-2.7-0.5-5.3-1.2-7.9c0.7,2.6,1,5.2,1,7.9
		c0,2.6-0.4,5.3-1.2,7.8c-0.8,2.5-2.2,4.8-3.9,6.7c-1.7,1.8-3.8,3.2-6,4.3c0.3-2.1,0.4-4.2,0.4-6.3c0.1-7.3-0.5-14.6-1.5-21.9
		c0.9,7.2,1.3,14.6,1,21.8c-0.2,3.6-0.5,7.3-1.5,10.7c-0.5,1.7-1.1,3.5-1.4,5.3c-0.4,1.8-0.7,3.6-1,5.4c-0.8,5.4-1.5,10.8-2,16.3
		c-0.1-0.1-0.2-0.2-0.2-0.3c-0.4-0.5-0.7-1-1.1-1.6c-0.7-1.1-1.2-2.3-1.8-3.4c-1.1-2.4-2-4.9-2.7-7.4c-0.2-0.6-0.4-1.3-0.6-1.9
		c-0.2-0.6-0.4-1.3-0.5-1.9l-0.4-1.9l-0.3-1.9c-0.3-2.6-0.4-5.2-0.5-7.9c0-1.6,0-3.3,0.1-4.9c1.8-1.1,3.3-2.5,4.6-4.1
		c1.2-1.7,2.2-3.6,2.9-5.5c0.7-1.9,1.2-4,1.6-6c0.3-2,0.6-4.1,0.6-6.1c-0.1,2-0.4,4.1-0.8,6.1c-0.4,2-1,4-1.8,5.8
		c-0.8,1.9-1.8,3.6-3,5.2c-1.1,1.4-2.5,2.5-4,3.4c0.1-3.3,0.4-6.5,0.7-9.8c0.5-5.3,1.2-10.5,2.1-15.8C44.9,18,44,23.2,43.3,28.5
		c-0.7,5.3-1.2,10.6-1.3,15.9c0,1.4,0,2.8,0,4.2c-2-0.5-3.9-1.3-5.7-2.4c-0.7-0.5-1.4-1.1-2.1-1.7c-1.2-1.9-2-4.1-2.6-6.3
		c-0.5-2.3-0.8-4.7-0.9-7.1c-0.1-2.4,0.1-4.8,0.4-7.2c0.3-2.4,0.7-4.8,1.3-7.1c-0.7,2.3-1.2,4.7-1.5,7c-0.4,2.4-0.6,4.8-0.6,7.2
		c0,2.4,0.2,4.8,0.6,7.2c0.3,1.4,0.7,2.8,1.3,4.2c-0.3-0.4-0.7-0.7-1-1.1c-1.5-1.8-2.8-3.8-3.9-5.9c-1.1-2.1-2.1-4.3-2.8-6.5
		c0.6,2.3,1.4,4.6,2.4,6.8c1,2.2,2.1,4.3,3.5,6.3c1.4,2,3.1,3.8,5,5.3c2,1.5,4.2,2.6,6.6,3.3c0,0.6,0.1,1.2,0.1,1.7l0.2,2l0.4,2
		c0.1,0.7,0.3,1.3,0.4,2c0.2,0.6,0.3,1.3,0.5,1.9c0.7,2.6,1.5,5.1,2.5,7.7c0.5,1.2,1.1,2.5,1.8,3.7c0.3,0.6,0.7,1.2,1.1,1.8
		c0.2,0.3,0.4,0.6,0.7,0.9c0.3,0.3,0.4,0.5,0.9,0.9l0-0.1c-0.1,1-0.2,2-0.3,3c-0.3,3.3-0.6,6.7-0.8,10c-1.1-1.6-2.3-3.3-3.3-4.9
		c-1-1.6-1.9-3.2-2.9-4.8c-0.1-2.8-0.3-5.6-0.7-8.4c-0.4-2.8-1-5.6-2-8.4c0.8,2.8,1.2,5.6,1.5,8.4c0.2,2.2,0.3,4.4,0.3,6.6
		c-0.2-0.4-0.4-0.7-0.6-1.1c-1.4-2.6-2.6-5.3-3.8-8c-1.1-2.7-2-5.5-2.7-8.4c0.5,2.9,1.3,5.8,2.2,8.6c1,2.8,2.1,5.6,3.3,8.3
		c1.3,2.7,2.6,5.3,4.1,7.9c1.4,2.5,2.8,4.9,4.4,7.2c-0.1,1.7-0.2,3.4-0.4,5.2c-2.6-5-5.1-10.1-7.6-15.1c-3-6.1-6-12.3-8.8-18.5
		c-1.4-3.1-2.8-6.3-4-9.4c-1.2-3.2-2-6.5-3.3-9.7c-1.3-3.2-2.9-6.3-4.9-9.1c-2-2.8-4.4-5.4-7.3-7.1c2.9,1.8,5.2,4.5,7.1,7.3
		c1.9,2.8,3.4,5.9,4.6,9.1c1.2,3.2,1.9,6.5,3.1,9.8c0.8,2.4,1.7,4.7,2.7,7c-0.9-0.2-1.9-0.4-2.8-0.7c-1.2-0.4-2.4-0.8-3.5-1.3
		c-2.3-1-4.4-2.3-6.4-3.7c-2-1.5-3.8-3.2-5.5-5.1c-1.6-1.9-3.1-4-4.2-6.2c1,2.3,2.4,4.4,4,6.4c1.6,2,3.4,3.8,5.3,5.3
		c2,1.6,4.1,3,6.4,4c1.1,0.6,2.3,1,3.5,1.5c1.1,0.4,2.3,0.7,3.5,1c0.2,0.5,0.4,1,0.6,1.5c2.7,6.3,5.5,12.6,8.4,18.8
		c0.7,1.5,1.4,3,2.1,4.6C39.1,85.4,36,84,33,82.4c-0.1-0.1-0.3-0.2-0.4-0.2c-0.6-0.5-1.2-1-1.8-1.6c-1.3-1.3-2.5-2.8-3.5-4.4
		c-0.9-1.6-1.8-3.4-2.3-5.2c-0.3-0.9-0.5-1.8-0.8-2.8c-0.2-0.9-0.3-1.9-0.5-2.8c0.1,0.9,0.2,1.9,0.4,2.8c0.2,0.9,0.3,1.9,0.6,2.8
		c0.5,1.9,1.2,3.6,2.1,5.4c0.8,1.5,1.8,2.9,2.9,4.2c-2.4-1.5-4.7-3.1-7-4.8c-3.2-2.5-6.1-5.4-8.6-8.7c-2.5-3.2-4.4-6.9-5.8-10.8
		c1.2,3.9,3,7.7,5.4,11.1c2.4,3.4,5.2,6.4,8.3,9.2c3.1,2.7,6.5,5.1,10.1,7.2c3.6,2.1,7.2,3.9,11.1,5.4c1.8,3.8,2.6,7.5,4.4,11.3
		l1.9-0.2h0l2.1,0.2c0,0,0,0,0,0c0.1-3.5-0.2-7.2,1.2-10.5c0.5-1.2,1-2.3,1.6-3.4c2.4-0.6,4.7-1.4,6.9-2.4c1.8-0.8,3.5-1.8,5.1-2.9
		c1.6,0.2,3.1,0.2,4.7,0.1c1,0,2-0.2,3-0.4c1-0.2,1.9-0.4,2.9-0.8c1.9-0.6,3.7-1.4,5.4-2.5c1.7-1,3.3-2.2,4.6-3.7
		c-1.4,1.4-3,2.5-4.7,3.5c-1.7,1-3.5,1.7-5.4,2.2c-0.9,0.3-1.9,0.4-2.8,0.6c-1,0.1-1.9,0.3-2.9,0.3c-1.2,0.1-2.3,0-3.5-0.1
		c0.1-0.1,0.2-0.1,0.3-0.2c3.8-2.8,7.2-6.1,10.3-9.7c0.8-0.2,1.5-0.3,2.3-0.5c0.9-0.3,1.8-0.5,2.6-0.9c1.7-0.6,3.4-1.5,5-2.5
		c1.6-1,3-2.2,4.3-3.5c1.3-1.3,2.4-2.8,3.2-4.4C94.8,60.2,93.6,61.7,92.3,62.9z"/>
</g>
</svg>
