<?xml version="1.0" encoding="utf-8"?>
<!-- Generator: Adobe Illustrator 19.0.0, SVG Export Plug-In . SVG Version: 6.00 Build 0)  -->
<svg version="1.1" id="OBJECTS" xmlns="http://www.w3.org/2000/svg" xmlns:xlink="http://www.w3.org/1999/xlink" x="0px" y="0px"
	 viewBox="0 0 133.5 154.9" style="enable-background:new 0 0 133.5 154.9;" xml:space="preserve">
<style type="text/css">
	.st0{clip-path:url(#XMLID_3_);fill:url(#SVGID_1_);}
	.st1{clip-path:url(#XMLID_8_);fill:url(#SVGID_2_);}
	.st2{clip-path:url(#XMLID_10_);fill:url(#SVGID_3_);}
	.st3{fill:url(#SVGID_4_);}
	.st4{fill:url(#SVGID_5_);}
</style>
<g>
	<g>
		<defs>
			<path id="XMLID_5_" d="M113,26.3c14.8,0,24.7,15.2,18.7,28.7c-11,24.9-36,42.3-65,42.3c-29,0-53.9-17.4-65-42.3
				c-6-13.5,3.9-28.7,18.7-28.7H113z"/>
		</defs>
		<linearGradient id="XMLID_2_" gradientUnits="userSpaceOnUse" x1="66.7273" y1="97.2818" x2="66.7273" y2="26.2818">
			<stop  offset="0" style="stop-color:#49A187"/>
			<stop  offset="0.1157" style="stop-color:#5BAB7E"/>
			<stop  offset="0.3413" style="stop-color:#78BB6F"/>
			<stop  offset="0.5658" style="stop-color:#8CC664"/>
			<stop  offset="0.7868" style="stop-color:#99CD5D"/>
			<stop  offset="1" style="stop-color:#9DCF5B"/>
		</linearGradient>
		<use xlink:href="#XMLID_5_"  style="overflow:visible;fill:url(#XMLID_2_);"/>
		<clipPath id="XMLID_3_">
			<use xlink:href="#XMLID_5_"  style="overflow:visible;"/>
		</clipPath>
		<linearGradient id="SVGID_1_" gradientUnits="userSpaceOnUse" x1="51.0784" y1="153.4678" x2="51.0784" y2="41.4309">
			<stop  offset="0" style="stop-color:#9DCF5B"/>
			<stop  offset="0.1921" style="stop-color:#94CA60"/>
			<stop  offset="0.5054" style="stop-color:#7CBD6C"/>
			<stop  offset="0.8987" style="stop-color:#54A781"/>
			<stop  offset="1" style="stop-color:#49A187"/>
		</linearGradient>
		<path class="st0" d="M97.9,11c0,0,3.6,34.2-40.1,32C14.2,40.8,31.1,93,57.3,71.8c34-27.5,76-15.5,66.5-2.5
			c-5.7,7.8-35.3,48.1-67.4,45.9c-32-2.2-80.1-21.8-79.4-60.4C-22.2,16.1,36-10.9,97.9,11z"/>
	</g>
	<g>
		<defs>
			<path id="XMLID_6_" d="M84.9,0c13.2,0,20.8,15.5,12.2,25.6c-7.3,8.7-18.2,14.2-30.4,14.2s-23.1-5.5-30.4-14.2
				C27.8,15.5,35.3,0,48.5,0H84.9z"/>
		</defs>
		<linearGradient id="XMLID_4_" gradientUnits="userSpaceOnUse" x1="66.7273" y1="39.7882" x2="66.7273" y2="-8.149073e-010">
			<stop  offset="0" style="stop-color:#9DCF5B"/>
			<stop  offset="0.2132" style="stop-color:#99CD5D"/>
			<stop  offset="0.4342" style="stop-color:#8CC664"/>
			<stop  offset="0.6587" style="stop-color:#78BB6F"/>
			<stop  offset="0.8843" style="stop-color:#5BAB7E"/>
			<stop  offset="1" style="stop-color:#49A187"/>
		</linearGradient>
		<use xlink:href="#XMLID_6_"  style="overflow:visible;fill:url(#XMLID_4_);"/>
		<clipPath id="XMLID_8_">
			<use xlink:href="#XMLID_6_"  style="overflow:visible;"/>
		</clipPath>
		<linearGradient id="SVGID_2_" gradientUnits="userSpaceOnUse" x1="58.2549" y1="56.1044" x2="58.2549" y2="-2.9836">
			<stop  offset="0" style="stop-color:#49A187"/>
			<stop  offset="0.1157" style="stop-color:#5BAB7E"/>
			<stop  offset="0.3413" style="stop-color:#78BB6F"/>
			<stop  offset="0.5658" style="stop-color:#8CC664"/>
			<stop  offset="0.7868" style="stop-color:#99CD5D"/>
			<stop  offset="1" style="stop-color:#9DCF5B"/>
		</linearGradient>
		<path class="st1" d="M26.3,1.4c0,0,40.7-8.9,27.4-1.3c-17,9.7-1.8,24.9,8.4,19c11.5-6.6,35.8-9.7,32.3,9.7
			c-2.9,15.9-34.5,35.8-51.7,23.4C25.5,39.9,15.3,19.1,26.3,1.4z"/>
	</g>
	<g>
		<defs>
			<path id="XMLID_7_" d="M112.4,71.1c8.5,0,13.4,10,7.9,16.5c-4.7,5.6-11.7,9.1-19.6,9.1c-7.8,0-14.9-3.5-19.6-9.1
				c-5.5-6.5-0.6-16.5,7.9-16.5H112.4z"/>
		</defs>
		<linearGradient id="XMLID_9_" gradientUnits="userSpaceOnUse" x1="100.7273" y1="103.1798" x2="100.7273" y2="77.6083">
			<stop  offset="0" style="stop-color:#9DCF5B"/>
			<stop  offset="0.2132" style="stop-color:#99CD5D"/>
			<stop  offset="0.4342" style="stop-color:#8CC664"/>
			<stop  offset="0.6587" style="stop-color:#78BB6F"/>
			<stop  offset="0.8843" style="stop-color:#5BAB7E"/>
			<stop  offset="1" style="stop-color:#49A187"/>
		</linearGradient>
		<use xlink:href="#XMLID_7_"  style="overflow:visible;fill:url(#XMLID_9_);"/>
		<clipPath id="XMLID_10_">
			<use xlink:href="#XMLID_7_"  style="overflow:visible;"/>
		</clipPath>
		<linearGradient id="SVGID_3_" gradientUnits="userSpaceOnUse" x1="99.6247" y1="107.5251" x2="99.6247" y2="67.0411">
			<stop  offset="0" style="stop-color:#49A187"/>
			<stop  offset="0.1157" style="stop-color:#5BAB7E"/>
			<stop  offset="0.3413" style="stop-color:#78BB6F"/>
			<stop  offset="0.5658" style="stop-color:#8CC664"/>
			<stop  offset="0.7868" style="stop-color:#99CD5D"/>
			<stop  offset="1" style="stop-color:#9DCF5B"/>
		</linearGradient>
		<path class="st2" d="M100.6,67.9c0,0,21,0.3,12.3,7.7c-8.7,7.3-20-3-23,8c-1.8,6.6,13,10.7,21.7,1c6.1-6.8,19-2,11.3,11
			c-7.7,13-49,19.7-49-3C73.9,69.9,79.3,64.6,100.6,67.9z"/>
	</g>
	<g>
		<linearGradient id="SVGID_4_" gradientUnits="userSpaceOnUse" x1="68.8379" y1="34.8943" x2="68.8379" y2="34.8942">
			<stop  offset="0" style="stop-color:#80552E"/>
			<stop  offset="1" style="stop-color:#B07145"/>
		</linearGradient>
		<polygon class="st3" points="68.8,34.9 68.8,34.9 68.8,34.9 		"/>
		<linearGradient id="SVGID_5_" gradientUnits="userSpaceOnUse" x1="66.7273" y1="158.6869" x2="66.7273" y2="27.9842">
			<stop  offset="0" style="stop-color:#80552E"/>
			<stop  offset="1" style="stop-color:#B07145"/>
		</linearGradient>
		<path class="st4" d="M110.2,57.7c-1,0.3-2,0.5-3.1,0.5c-1,0-2.1-0.1-3.1-0.4c-0.9-0.2-1.8-0.5-2.7-0.9c0.3-0.3,0.6-0.7,0.8-1
			c2.3-3.1,4-6.5,5.3-10.1c-1.5,3.5-3.4,6.8-5.8,9.7c-1.2,1.4-2.6,2.7-4,3.9c-1.5,1.2-3,2.2-4.6,3.1c-0.9,0.5-1.8,0.9-2.7,1.3
			c0.7-0.9,1.3-1.8,1.9-2.8c1.3-2.1,2.4-4.4,3.1-6.8c0.1-0.3,0.2-0.7,0.3-1c0.9-0.2,1.7-0.6,2.5-1.1c0.9-0.5,1.6-1.2,2.2-2
			c0.7-0.7,1.2-1.6,1.7-2.4c0.2-0.4,0.4-0.9,0.6-1.3l0.5-1.4l-0.6,1.3c-0.3,0.4-0.5,0.8-0.7,1.2c-0.5,0.8-1.1,1.6-1.8,2.2
			c-0.7,0.7-1.4,1.2-2.3,1.7c-0.6,0.3-1.2,0.5-1.8,0.7c0.1-0.5,0.3-1.1,0.4-1.6c0.1-0.6,0.3-1.2,0.3-1.8l0.2-1.8c0-0.1,0-0.1,0-0.2
			c0,0,0,0,0,0l0,0c0.1-0.5,0.1-1.1,0.1-1.6l0.1-1.8c0-1.2-0.1-2.5-0.1-3.7c0,1.2-0.1,2.5-0.1,3.7L96.6,45c0,0.3-0.1,0.5-0.1,0.8
			l0,0c-0.8,0.3-1.6,0.6-2.4,0.5c-0.8-0.1-1.6-0.4-2.3-0.9c-0.7-0.5-1.3-1.1-1.8-1.8c-0.5-0.7-1-1.5-1.3-2.3
			c0.3,0.8,0.6,1.7,1.1,2.4c0.5,0.8,1,1.5,1.7,2.1c0.7,0.6,1.6,1,2.5,1.2c0.8,0.2,1.5,0,2.3-0.1L96,48.6c-0.1,0.6-0.3,1.2-0.5,1.8
			c-0.3,1.2-0.7,2.3-1.1,3.4c-0.9,2.2-2.1,4.4-3.4,6.3c-1.4,1.9-3.1,3.8-4.8,5l0,0c-1.2,0.3-2.4,0.6-3.6,0.9
			c-1.8,0.3-3.7,0.5-5.5,0.6c-1.5,0.1-3.1,0-4.5-0.1c0-10.7-1.2-21.3-3.7-31.7l0.9,6.9c0.6,4.4,0.9,8.8,1,13.3
			c-1.4,0.2-2.9,0.4-4.3,0.6L64,55.8l-1.2,0.1c-0.4,0-0.8,0-1.2,0l-2.4-0.1c-0.8-0.1-1.6-0.2-2.3-0.3l-1.2-0.2
			c-0.4-0.1-0.8-0.2-1.2-0.3c-0.8-0.2-1.5-0.3-2.3-0.6c-1.7-0.5-3.3-1.1-4.9-1.9c0.5-0.6,0.9-1.2,1.3-1.8c0.5-0.9,0.9-1.8,1.2-2.8
			c0-0.1,0.1-0.2,0.1-0.4l0,0.7c0.6,0,1.2-0.1,1.8-0.3c0.6-0.2,1.1-0.4,1.6-0.6c0.5-0.3,1-0.7,1.3-1.1c0.4-0.4,0.6-1,0.8-1.5
			c-0.3,0.5-0.6,1-1,1.3c-0.4,0.4-0.9,0.6-1.4,0.8c-0.5,0.2-1,0.3-1.6,0.4c-0.5,0.1-1,0.1-1.5,0c0.2-0.8,0.3-1.5,0.2-2.3
			c0-1-0.1-2-0.3-3c0.1,1,0.2,2,0.1,2.9c-0.1,1-0.3,1.9-0.6,2.8c-0.3,0.9-0.8,1.8-1.3,2.5c-0.5,0.6-1,1.3-1.6,1.7
			c-1-0.5-1.9-1-2.8-1.6c-2.7-1.7-5.1-3.9-7-6.5c1.8,2.7,4.1,5,6.7,6.9c1,0.7,2.1,1.4,3.1,2l0.2,0.3c0,0,0.1-0.1,0.1-0.1
			c1.1,0.6,2.2,1.1,3.3,1.6c-2,1.4-4.3,2.4-6.7,3c-2.6,0.6-5.4,0.7-8,0.3l-2-0.3c-0.7-0.1-1.3-0.4-2-0.5c-1.3-0.3-2.6-0.9-3.8-1.4
			c-1.3-0.5-2.4-1.2-3.7-1.8l-3.5-2.2l3.4,2.3c1.2,0.6,2.4,1.4,3.6,1.9c1.3,0.5,2.5,1.2,3.8,1.5c0.7,0.2,1.3,0.4,2,0.6l2,0.4
			c2.7,0.4,5.5,0.4,8.3-0.1c2.7-0.6,5.4-1.5,7.7-3.3l0,0c0.3,0.1,0.5,0.2,0.8,0.3c0.8,0.3,1.6,0.5,2.3,0.7c0.4,0.1,0.8,0.2,1.2,0.3
			l1.2,0.2c0.8,0.1,1.6,0.3,2.4,0.4l2.4,0.2c0.4,0,0.8,0.1,1.2,0.1l1.2,0l2.5,0c1.4-0.1,2.8-0.2,4.3-0.4c0.1,9.3-0.7,18.6-2.6,27.7
			l-2.9,14.5c-0.4,2.2-0.6,4.4-0.4,6.6l3.7,49h8L72.3,117c-1-8.9,2.9-17.6,10.3-22.7l17.4-12L74.3,95.5c-2.3,1.2-4.9-0.8-4.4-3.3
			l0,0c1.5-7.5,2.3-15.1,2.5-22.6c1.6,0,3.2-0.1,4.8-0.2c1.9-0.2,3.9-0.6,5.8-1c3.8-1,7.4-2.5,10.7-4.5c1.6-1.1,3.2-2.2,4.6-3.5
			c0.9-0.8,1.7-1.7,2.5-2.6l-0.1,0.1c1.1,0.4,2.1,0.7,3.2,0.8c1.1,0.2,2.2,0.2,3.2,0.1c1.1-0.1,2.1-0.3,3.1-0.7c1-0.4,1.9-1,2.7-1.7
			C112.1,56.9,111.2,57.4,110.2,57.7z"/>
	</g>
</g>
</svg>
